PathFileType	4	(X/Y/Z)	OpenSim_Sub10_CSStiffKnee_Magnet.trc
DataRate	CameraRate	NumFrames	NumMarkers	Units	OrigDataRate	OrigDataStartFrame	OrigNumFrames
100	100	30	8	m	100	6131	8174
Frame#	Time	torso_imu_offset_imu	pelvis_imu_offset_imu	tibia_r_imu_offset_imu	femur_r_imu_offset_imu	tibia_l_imu_offset_imu	femur_l_imu_offset_imu	toes_r_imu_offset_imu	toes_l_imu_offset_imu
				X1	Y1	Z1	X2	Y2	Z2	X3	Y3	Z3	X4	Y4	Z4	X5	Y5	Z5	X6	Y6	Z6	X7	Y7	Z7	X8		Y8	Z8	

6131	61.30000000	-0.92797684	0.06007319	0.19895882	-0.56401709	-0.07075063	-0.76851289	-0.61126569	-0.65860633	-0.17980900	-0.62572270	-0.55774998	0.09566585	-0.74884145	0.30211303	0.11825768	-0.72044618	0.05766543	0.20654129	-0.65631054	-0.30294403	-0.39526433	-0.62292741	-0.22890862	-0.48403662
6132	61.31000000	-0.93081745	0.05380077	0.19866795	-0.55891852	-0.06312167	-0.76637820	-0.60160330	-0.66797392	-0.18223902	-0.62389427	-0.56416097	0.08855456	-0.75165347	0.29865990	0.12343174	-0.71772790	0.05505489	0.20435998	-0.66471563	-0.31109560	-0.39076186	-0.62569937	-0.22628072	-0.47734450
6133	61.32000000	-0.93127802	0.05059387	0.19959414	-0.56256804	-0.06173276	-0.76544042	-0.59198765	-0.67529004	-0.18213204	-0.62332282	-0.56005372	0.07881404	-0.74956621	0.30524646	0.13051540	-0.71717937	0.05266650	0.20890825	-0.67339719	-0.31476936	-0.39131064	-0.62394764	-0.23549865	-0.46861023
6134	61.33000000	-0.92933307	0.04809191	0.19636774	-0.56766809	-0.05416637	-0.76532888	-0.58056918	-0.68097388	-0.19858323	-0.61928509	-0.56384145	0.07738637	-0.74603381	0.30242815	0.13760301	-0.71315044	0.05395103	0.21612919	-0.67612508	-0.32429810	-0.38693688	-0.62634123	-0.24483024	-0.46136438
6135	61.34000000	-0.92277972	0.04662669	0.20489525	-0.57309418	-0.04744820	-0.75825627	-0.57321421	-0.68671285	-0.19575585	-0.61693130	-0.56984583	0.06667980	-0.74345867	0.31263337	0.13950996	-0.70960154	0.05075938	0.22268421	-0.67879488	-0.33406728	-0.39085633	-0.63344233	-0.24576391	-0.46374178
6136	61.35000000	-0.92559484	0.04389656	0.21181344	-0.57600604	-0.04654266	-0.75086660	-0.56325124	-0.68865773	-0.19367778	-0.62022332	-0.56831807	0.05960580	-0.73659971	0.31145635	0.15219925	-0.70886058	0.04864388	0.23019086	-0.68523624	-0.33708677	-0.38565624	-0.63241497	-0.25352875	-0.45091608
6137	61.36000000	-0.92408264	0.04287828	0.20855126	-0.58324084	-0.03653462	-0.74966525	-0.55082341	-0.69196252	-0.19976781	-0.62254060	-0.56750297	0.05687674	-0.73284042	0.31033753	0.16233876	-0.70854187	0.04937836	0.23236008	-0.69670110	-0.33981255	-0.37588252	-0.64387553	-0.25558359	-0.43030539
6138	61.37000000	-0.92308436	0.04586630	0.20776880	-0.58830057	-0.02273452	-0.74212130	-0.54253383	-0.69949565	-0.20049326	-0.62030468	-0.56755705	0.05014832	-0.72911992	0.31899622	0.17199059	-0.70140225	0.04785282	0.23401676	-0.70656483	-0.34697059	-0.36759436	-0.65960271	-0.24695243	-0.41339270
6139	61.38000000	-0.92703920	0.03737750	0.19873474	-0.59056072	-0.01612348	-0.74047931	-0.52971021	-0.71136794	-0.20395380	-0.62946427	-0.56803083	0.04682511	-0.71924525	0.32221679	0.18391494	-0.69593271	0.04690843	0.24253114	-0.71601290	-0.35385646	-0.35876186	-0.66925704	-0.24063155	-0.40348517
6140	61.39000000	-0.92881835	0.02560615	0.19620394	-0.59283139	-0.00774058	-0.73959211	-0.51568495	-0.71854301	-0.20794377	-0.62719834	-0.56518523	0.03866157	-0.71763789	0.33600960	0.18816411	-0.69584216	0.04735246	0.24776436	-0.73288277	-0.35438046	-0.34424523	-0.67565655	-0.22839617	-0.39768959
6141	61.40000000	-0.92792050	0.02107887	0.18830634	-0.59472881	-0.00440962	-0.73688083	-0.50215422	-0.72426677	-0.21446951	-0.62818566	-0.56220627	0.03236855	-0.71080463	0.34435333	0.19502805	-0.69517069	0.04639574	0.25837465	-0.74262203	-0.35976080	-0.32518532	-0.68158361	-0.21415414	-0.39939035
6142	61.41000000	-0.92737817	0.01320650	0.18946629	-0.60013752	-0.00404397	-0.73844416	-0.48597635	-0.72625656	-0.22681513	-0.63340283	-0.55864220	0.02508109	-0.70320471	0.35243440	0.20191696	-0.68928194	0.05072790	0.26667844	-0.75195623	-0.35772535	-0.30309493	-0.68894437	-0.19920968	-0.40093711
6143	61.42000000	-0.93103391	0.00257592	0.19545892	-0.60120266	-0.00150377	-0.73315996	-0.46774246	-0.73852874	-0.23745870	-0.63293185	-0.55630855	0.02663963	-0.69768874	0.36014212	0.21061827	-0.68668423	0.04666218	0.26318492	-0.76480954	-0.35934769	-0.27579532	-0.68741619	-0.19778503	-0.39624181
6144	61.43000000	-0.92595289	-0.00192787	0.19307571	-0.60446926	0.00082918	-0.73063946	-0.44754110	-0.74684772	-0.24367801	-0.64010842	-0.55063622	0.02251981	-0.69457892	0.36494688	0.21295839	-0.68515894	0.04112162	0.26955661	-0.77818049	-0.36998882	-0.24190512	-0.69411076	-0.19809002	-0.39362776
6145	61.44000000	-0.92760278	-0.01136909	0.19113553	-0.60500879	0.01023115	-0.72810107	-0.43322712	-0.75162414	-0.24380333	-0.65408173	-0.54196540	0.01705790	-0.68723525	0.38185847	0.21731716	-0.68625238	0.04718747	0.26137863	-0.78416814	-0.37466203	-0.19988149	-0.70000241	-0.19497049	-0.39007593
6146	61.45000000	-0.92900901	-0.02285168	0.19101793	-0.60427506	0.01510755	-0.72692160	-0.41645274	-0.75887544	-0.24965850	-0.65961794	-0.53323534	0.01745792	-0.67877155	0.38836770	0.22387662	-0.68533746	0.04920425	0.26329877	-0.79507980	-0.38364095	-0.15451863	-0.69701364	-0.19804873	-0.39473712
6147	61.46000000	-0.92902856	-0.02784721	0.19015419	-0.60245941	0.02074242	-0.72242652	-0.39092520	-0.76788300	-0.25456192	-0.66705124	-0.51878667	0.00823183	-0.67897021	0.39113962	0.22886770	-0.68773681	0.05284086	0.27461887	-0.80280731	-0.38972412	-0.10757091	-0.69585378	-0.20421499	-0.39404774
6148	61.47000000	-0.92722510	-0.03276422	0.18730898	-0.60604961	0.02737134	-0.72054579	-0.36997587	-0.77556726	-0.25688982	-0.68377405	-0.50269965	-0.00227474	-0.67433155	0.39597303	0.23573162	-0.68778613	0.05816553	0.27488948	-0.80400403	-0.39147290	-0.05872499	-0.69662016	-0.20965865	-0.38547800
6149	61.48000000	-0.92492003	-0.03238551	0.18828113	-0.61001904	0.03138973	-0.72463488	-0.34821412	-0.78432479	-0.25179752	-0.69214447	-0.49135973	-0.00600112	-0.67086673	0.38884450	0.24219209	-0.68107078	0.06560170	0.27409705	-0.80370259	-0.40101971	-0.01581216	-0.69342394	-0.21307903	-0.38257054
6150	61.49000000	-0.92502865	-0.04279102	0.18949688	-0.60671902	0.04234363	-0.72406995	-0.32813022	-0.79271457	-0.24329472	-0.70542249	-0.47967001	-0.00997169	-0.67116186	0.39401493	0.25049444	-0.67667567	0.08117697	0.27758255	-0.80071346	-0.40656072	0.02254724	-0.69948865	-0.21193664	-0.38688082
6151	61.50000000	-0.92504074	-0.05042203	0.19184345	-0.60314078	0.04449860	-0.72276747	-0.30384906	-0.79800662	-0.23508293	-0.71844047	-0.46071767	-0.01478377	-0.66419106	0.39957082	0.24711305	-0.67203561	0.09961039	0.27730594	-0.79194747	-0.40966925	0.05700756	-0.70054546	-0.21220708	-0.38537757
6152	61.51000000	-0.92314216	-0.05591453	0.18993805	-0.60465706	0.05461429	-0.72443512	-0.27923357	-0.80661376	-0.23655201	-0.72675883	-0.44875088	-0.01432920	-0.65802365	0.39956516	0.24730606	-0.67283795	0.11355694	0.27783656	-0.78418129	-0.41977511	0.09222357	-0.69757814	-0.21451744	-0.38428573
6153	61.52000000	-0.92269521	-0.06940469	0.19768345	-0.60446322	0.06001400	-0.72862197	-0.26001729	-0.80990399	-0.22436347	-0.74147165	-0.42941175	-0.01345917	-0.66151747	0.40231034	0.25555255	-0.67260930	0.12873044	0.27627956	-0.77363262	-0.42555515	0.11336688	-0.69689962	-0.21838112	-0.38660600
6154	61.53000000	-0.91730479	-0.07861559	0.20115804	-0.60219993	0.06748828	-0.73251310	-0.24298103	-0.80919500	-0.22841764	-0.75277785	-0.40921086	-0.01652524	-0.66140857	0.40437666	0.25153657	-0.67420853	0.13942339	0.27176931	-0.76485520	-0.43301808	0.12181040	-0.69344551	-0.22042741	-0.38307442
6155	61.54000000	-0.91711218	-0.08195147	0.20264213	-0.60018926	0.07458108	-0.73346737	-0.23307491	-0.80927199	-0.22487196	-0.75441465	-0.39810257	-0.01648220	-0.66257099	0.40654842	0.25814380	-0.67137550	0.16046327	0.27302534	-0.75554065	-0.44143126	0.12960736	-0.68618605	-0.21945394	-0.38813355
6156	61.55000000	-0.91246526	-0.09215910	0.20373056	-0.59984337	0.07800403	-0.72423887	-0.22256760	-0.81009487	-0.21582525	-0.76571566	-0.38107180	-0.01431206	-0.65973262	0.40850574	0.25976608	-0.66874226	0.17112414	0.28224200	-0.74949964	-0.44651385	0.13256517	-0.68691693	-0.22253194	-0.37691774
6157	61.56000000	-0.91599189	-0.10065322	0.20431335	-0.59863894	0.08477865	-0.72651863	-0.21082519	-0.81398779	-0.20842194	-0.77531261	-0.36574406	-0.01326008	-0.66228690	0.40269008	0.26037461	-0.66685678	0.17713065	0.28235453	-0.73906871	-0.45501075	0.12801192	-0.69669284	-0.22586936	-0.37976951
6158	61.57000000	-0.91464728	-0.10220751	0.20482796	-0.59802473	0.09248258	-0.72612838	-0.21007195	-0.81660425	-0.21406021	-0.77985482	-0.35424573	-0.00944834	-0.66387880	0.40377984	0.26074972	-0.66355816	0.18589943	0.28158076	-0.72603876	-0.45676629	0.12336293	-0.69265046	-0.22794944	-0.38310431
6159	61.58000000	-0.90904192	-0.10710878	0.20962714	-0.59715718	0.09934255	-0.73089313	-0.21803225	-0.81072360	-0.22993040	-0.78737907	-0.34083689	-0.00809415	-0.65585749	0.40161330	0.26408002	-0.66092270	0.18696781	0.28981955	-0.72419385	-0.46323629	0.10651466	-0.69524948	-0.22914298	-0.37781970
6160	61.59000000	-0.91129063	-0.11309375	0.21221871	-0.59425302	0.10877806	-0.73063431	-0.22618805	-0.80310394	-0.24873922	-0.79295541	-0.32466294	-0.00862338	-0.66327287	0.39887251	0.26624220	-0.65426005	0.19498509	0.28906951	-0.72029893	-0.46840034	0.08494721	-0.69250523	-0.22742318	-0.37996517
